<mxfile host="app.diagrams.net" modified="2021-04-06T00:24:30.021Z" agent="5.0 (Windows NT 10.0; Win64; x64) AppleWebKit/537.36 (KHTML, like Gecko) Chrome/89.0.4389.82 Safari/537.36 OPR/75.0.3969.93" etag="LefT5vilDHZ-cvlPh1sf" version="14.5.3" type="github">
  <diagram name="Page-1" id="58cdce13-f638-feb5-8d6f-7d28b1aa9fa0">
    <mxGraphModel dx="974" dy="532" grid="1" gridSize="10" guides="1" tooltips="1" connect="1" arrows="1" fold="1" page="1" pageScale="1" pageWidth="1100" pageHeight="850" background="#ffffff" math="0" shadow="0">
      <root>
        <mxCell id="0" />
        <mxCell id="1" parent="0" />
        <mxCell id="Ju0aljIFU7Cdi8be0KwI-7" style="edgeStyle=orthogonalEdgeStyle;rounded=0;orthogonalLoop=1;jettySize=auto;html=1;" edge="1" parent="1" source="382b91b5511bd0f7-1" target="Ju0aljIFU7Cdi8be0KwI-4">
          <mxGeometry relative="1" as="geometry" />
        </mxCell>
        <mxCell id="382b91b5511bd0f7-1" value="" style="ellipse;html=1;shape=startState;fillColor=#000000;strokeColor=#ff0000;rounded=1;shadow=0;comic=0;labelBackgroundColor=none;fontFamily=Verdana;fontSize=12;fontColor=#000000;align=center;direction=south;" parent="1" vertex="1">
          <mxGeometry x="150" y="135" width="30" height="30" as="geometry" />
        </mxCell>
        <mxCell id="Ju0aljIFU7Cdi8be0KwI-17" style="edgeStyle=orthogonalEdgeStyle;rounded=0;orthogonalLoop=1;jettySize=auto;html=1;" edge="1" parent="1" source="Ju0aljIFU7Cdi8be0KwI-4" target="Ju0aljIFU7Cdi8be0KwI-8">
          <mxGeometry relative="1" as="geometry" />
        </mxCell>
        <mxCell id="Ju0aljIFU7Cdi8be0KwI-4" value="LYNX envia alerta" style="swimlane;html=1;fontStyle=1;align=center;verticalAlign=middle;childLayout=stackLayout;horizontal=1;startSize=30;horizontalStack=0;resizeParent=0;resizeLast=1;container=0;fontColor=#000000;collapsible=0;rounded=1;arcSize=30;strokeColor=#ff0000;fillColor=#ffffc0;swimlaneFillColor=#ffffc0;dropTarget=0;" vertex="1" parent="1">
          <mxGeometry x="235" y="105" width="210" height="90" as="geometry" />
        </mxCell>
        <mxCell id="Ju0aljIFU7Cdi8be0KwI-5" value="Responsable: Luis Quispe&lt;br&gt;Proceso: Envia por postman" style="text;html=1;strokeColor=none;fillColor=none;align=center;verticalAlign=middle;spacingLeft=4;spacingRight=4;whiteSpace=wrap;overflow=hidden;rotatable=0;fontColor=#000000;" vertex="1" parent="Ju0aljIFU7Cdi8be0KwI-4">
          <mxGeometry y="30" width="210" height="60" as="geometry" />
        </mxCell>
        <mxCell id="Ju0aljIFU7Cdi8be0KwI-18" style="edgeStyle=orthogonalEdgeStyle;rounded=0;orthogonalLoop=1;jettySize=auto;html=1;" edge="1" parent="1" source="Ju0aljIFU7Cdi8be0KwI-8" target="Ju0aljIFU7Cdi8be0KwI-11">
          <mxGeometry relative="1" as="geometry" />
        </mxCell>
        <mxCell id="Ju0aljIFU7Cdi8be0KwI-8" value="CBAF recibe alerta" style="swimlane;html=1;fontStyle=1;align=center;verticalAlign=middle;childLayout=stackLayout;horizontal=1;startSize=30;horizontalStack=0;resizeParent=0;resizeLast=1;container=0;fontColor=#000000;collapsible=0;rounded=1;arcSize=30;strokeColor=#ff0000;fillColor=#ffffc0;swimlaneFillColor=#ffffc0;dropTarget=0;" vertex="1" parent="1">
          <mxGeometry x="550" y="120" width="160" height="60" as="geometry" />
        </mxCell>
        <mxCell id="Ju0aljIFU7Cdi8be0KwI-9" value="Responsable:" style="text;html=1;strokeColor=none;fillColor=none;align=center;verticalAlign=middle;spacingLeft=4;spacingRight=4;whiteSpace=wrap;overflow=hidden;rotatable=0;fontColor=#000000;" vertex="1" parent="Ju0aljIFU7Cdi8be0KwI-8">
          <mxGeometry y="30" width="160" height="30" as="geometry" />
        </mxCell>
        <mxCell id="Ju0aljIFU7Cdi8be0KwI-10" value="Responsable:" style="text;html=1;strokeColor=none;fillColor=none;align=center;verticalAlign=middle;spacingLeft=4;spacingRight=4;whiteSpace=wrap;overflow=hidden;rotatable=0;fontColor=#000000;" vertex="1" parent="Ju0aljIFU7Cdi8be0KwI-8">
          <mxGeometry y="60" width="160" as="geometry" />
        </mxCell>
        <mxCell id="Ju0aljIFU7Cdi8be0KwI-19" style="edgeStyle=orthogonalEdgeStyle;rounded=0;orthogonalLoop=1;jettySize=auto;html=1;entryX=0.5;entryY=0;entryDx=0;entryDy=0;" edge="1" parent="1" source="Ju0aljIFU7Cdi8be0KwI-11" target="Ju0aljIFU7Cdi8be0KwI-14">
          <mxGeometry relative="1" as="geometry" />
        </mxCell>
        <mxCell id="Ju0aljIFU7Cdi8be0KwI-11" value="CBAF procesa alerta" style="swimlane;html=1;fontStyle=1;align=center;verticalAlign=middle;childLayout=stackLayout;horizontal=1;startSize=30;horizontalStack=0;resizeParent=0;resizeLast=1;container=0;fontColor=#000000;collapsible=0;rounded=1;arcSize=30;strokeColor=#ff0000;fillColor=#ffffc0;swimlaneFillColor=#ffffc0;dropTarget=0;" vertex="1" parent="1">
          <mxGeometry x="550" y="240" width="160" height="60" as="geometry" />
        </mxCell>
        <mxCell id="Ju0aljIFU7Cdi8be0KwI-12" value="Responsable:" style="text;html=1;strokeColor=none;fillColor=none;align=center;verticalAlign=middle;spacingLeft=4;spacingRight=4;whiteSpace=wrap;overflow=hidden;rotatable=0;fontColor=#000000;" vertex="1" parent="Ju0aljIFU7Cdi8be0KwI-11">
          <mxGeometry y="30" width="160" height="30" as="geometry" />
        </mxCell>
        <mxCell id="Ju0aljIFU7Cdi8be0KwI-13" value="Responsable:" style="text;html=1;strokeColor=none;fillColor=none;align=center;verticalAlign=middle;spacingLeft=4;spacingRight=4;whiteSpace=wrap;overflow=hidden;rotatable=0;fontColor=#000000;" vertex="1" parent="Ju0aljIFU7Cdi8be0KwI-11">
          <mxGeometry y="60" width="160" as="geometry" />
        </mxCell>
        <mxCell id="Ju0aljIFU7Cdi8be0KwI-23" style="edgeStyle=orthogonalEdgeStyle;rounded=0;orthogonalLoop=1;jettySize=auto;html=1;" edge="1" parent="1" source="Ju0aljIFU7Cdi8be0KwI-14" target="Ju0aljIFU7Cdi8be0KwI-20">
          <mxGeometry relative="1" as="geometry" />
        </mxCell>
        <mxCell id="Ju0aljIFU7Cdi8be0KwI-14" value="CBAF responde alerta" style="swimlane;html=1;fontStyle=1;align=center;verticalAlign=middle;childLayout=stackLayout;horizontal=1;startSize=30;horizontalStack=0;resizeParent=0;resizeLast=1;container=0;fontColor=#000000;collapsible=0;rounded=1;arcSize=30;strokeColor=#ff0000;fillColor=#ffffc0;swimlaneFillColor=#ffffc0;dropTarget=0;" vertex="1" parent="1">
          <mxGeometry x="550" y="365" width="160" height="60" as="geometry" />
        </mxCell>
        <mxCell id="Ju0aljIFU7Cdi8be0KwI-15" value="Responsable:" style="text;html=1;strokeColor=none;fillColor=none;align=center;verticalAlign=middle;spacingLeft=4;spacingRight=4;whiteSpace=wrap;overflow=hidden;rotatable=0;fontColor=#000000;" vertex="1" parent="Ju0aljIFU7Cdi8be0KwI-14">
          <mxGeometry y="30" width="160" height="30" as="geometry" />
        </mxCell>
        <mxCell id="Ju0aljIFU7Cdi8be0KwI-16" value="Responsable:" style="text;html=1;strokeColor=none;fillColor=none;align=center;verticalAlign=middle;spacingLeft=4;spacingRight=4;whiteSpace=wrap;overflow=hidden;rotatable=0;fontColor=#000000;" vertex="1" parent="Ju0aljIFU7Cdi8be0KwI-14">
          <mxGeometry y="60" width="160" as="geometry" />
        </mxCell>
        <mxCell id="Ju0aljIFU7Cdi8be0KwI-25" style="edgeStyle=orthogonalEdgeStyle;rounded=0;orthogonalLoop=1;jettySize=auto;html=1;" edge="1" parent="1" source="Ju0aljIFU7Cdi8be0KwI-20" target="Ju0aljIFU7Cdi8be0KwI-24">
          <mxGeometry relative="1" as="geometry" />
        </mxCell>
        <mxCell id="Ju0aljIFU7Cdi8be0KwI-20" value="LYNX recibe alerta" style="swimlane;html=1;fontStyle=1;align=center;verticalAlign=middle;childLayout=stackLayout;horizontal=1;startSize=30;horizontalStack=0;resizeParent=0;resizeLast=1;container=0;fontColor=#000000;collapsible=0;rounded=1;arcSize=30;strokeColor=#ff0000;fillColor=#ffffc0;swimlaneFillColor=#ffffc0;dropTarget=0;" vertex="1" parent="1">
          <mxGeometry x="800" y="365" width="160" height="60" as="geometry" />
        </mxCell>
        <mxCell id="Ju0aljIFU7Cdi8be0KwI-21" value="Responsable:" style="text;html=1;strokeColor=none;fillColor=none;align=center;verticalAlign=middle;spacingLeft=4;spacingRight=4;whiteSpace=wrap;overflow=hidden;rotatable=0;fontColor=#000000;" vertex="1" parent="Ju0aljIFU7Cdi8be0KwI-20">
          <mxGeometry y="30" width="160" height="30" as="geometry" />
        </mxCell>
        <mxCell id="Ju0aljIFU7Cdi8be0KwI-22" value="Responsable:" style="text;html=1;strokeColor=none;fillColor=none;align=center;verticalAlign=middle;spacingLeft=4;spacingRight=4;whiteSpace=wrap;overflow=hidden;rotatable=0;fontColor=#000000;" vertex="1" parent="Ju0aljIFU7Cdi8be0KwI-20">
          <mxGeometry y="60" width="160" as="geometry" />
        </mxCell>
        <mxCell id="Ju0aljIFU7Cdi8be0KwI-24" value="" style="ellipse;html=1;shape=endState;fillColor=#000000;strokeColor=#ff0000;" vertex="1" parent="1">
          <mxGeometry x="1020" y="380" width="30" height="30" as="geometry" />
        </mxCell>
        <mxCell id="Ju0aljIFU7Cdi8be0KwI-26" value="&lt;p style=&quot;line-height: 100%&quot;&gt;&lt;/p&gt;&lt;h1 style=&quot;font-size: 13px&quot;&gt;Postman de envío de transacción tipo OP/PB, Reglas:&lt;br&gt;- monto &amp;gt; 20K&lt;br&gt;- transacctionResponeCode = MB0000&lt;/h1&gt;&lt;p&gt;&lt;/p&gt;" style="text;html=1;strokeColor=none;fillColor=none;spacing=5;spacingTop=-20;whiteSpace=wrap;overflow=hidden;rounded=0;" vertex="1" parent="1">
          <mxGeometry x="220" y="210" width="215" height="80" as="geometry" />
        </mxCell>
      </root>
    </mxGraphModel>
  </diagram>
</mxfile>
